HIERARCHY
ROOT joint_Root
{
	OFFSET 0.0 0.0 0.0
	CHANNELS 6 Xposition Yposition Zposition Zrotation Xrotation Yrotation 
	JOINT Hips
	{
		OFFSET 4.5925 91.4895 -427.239
		CHANNELS 6 Xposition Yposition Zposition Zrotation Xrotation Yrotation 
		JOINT Spine
		{
			OFFSET 15.7357 0.0 0.0
			CHANNELS 6 Xposition Yposition Zposition Zrotation Xrotation Yrotation 
			JOINT Chest
			{
				OFFSET 8.98455 -0.406207 0.0
				CHANNELS 6 Xposition Yposition Zposition Zrotation Xrotation Yrotation 
				JOINT Neck
				{
					OFFSET 16.3773 0.0 0.0
					CHANNELS 6 Xposition Yposition Zposition Zrotation Xrotation Yrotation 
					JOINT Head
					{
						OFFSET 6.45672 0.0 0.0
						CHANNELS 6 Xposition Yposition Zposition Zrotation Xrotation Yrotation 
						End Site
						{
							OFFSET 0.0 0.0 0.0
						}
					}
				}
				JOINT Shoulder_L
				{
					OFFSET 12.9942 -0.242716 4.98039
					CHANNELS 6 Xposition Yposition Zposition Zrotation Xrotation Yrotation 
					JOINT UpperArm_L
					{
						OFFSET 5.34809 0.0 0.0
						CHANNELS 6 Xposition Yposition Zposition Zrotation Xrotation Yrotation 
						JOINT LowerArm_L
						{
							OFFSET 24.3286 1.87007e-05 0.0
							CHANNELS 6 Xposition Yposition Zposition Zrotation Xrotation Yrotation 
							JOINT Hand_L
							{
								OFFSET 22.2916 0.0 0.0
								CHANNELS 6 Xposition Yposition Zposition Zrotation Xrotation Yrotation 
								End Site
								{
									OFFSET 0.0 0.0 0.0
								}
							}
						}
					}
				}
				JOINT Shoulder_R
				{
					OFFSET 12.9945 -0.242716 -4.98039
					CHANNELS 6 Xposition Yposition Zposition Zrotation Xrotation Yrotation 
					JOINT UpperArm_R
					{
						OFFSET -5.34813 0.0 0.0
						CHANNELS 6 Xposition Yposition Zposition Zrotation Xrotation Yrotation 
						JOINT LowerArm_R
						{
							OFFSET -24.3289 0.000322201 0.0
							CHANNELS 6 Xposition Yposition Zposition Zrotation Xrotation Yrotation 
							JOINT Hand_R
							{
								OFFSET -22.2915 -0.000108084 0.0
								CHANNELS 6 Xposition Yposition Zposition Zrotation Xrotation Yrotation 
								End Site
								{
									OFFSET 0.0 0.0 0.0
								}
							}
						}
					}
				}
			}
		}
		JOINT UpperLeg_L
		{
			OFFSET -2.19248 -6.46944 0.0
			CHANNELS 6 Xposition Yposition Zposition Zrotation Xrotation Yrotation 
			JOINT LowerLeg_L
			{
				OFFSET 39.0811 0.0 -1.23785e-05
				CHANNELS 6 Xposition Yposition Zposition Zrotation Xrotation Yrotation 
				JOINT Foot_L
				{
					OFFSET 40.9854 0.0 -1.26872e-05
					CHANNELS 6 Xposition Yposition Zposition Zrotation Xrotation Yrotation 
					JOINT Toes_L
					{
						OFFSET 11.7543 0.0 0.0
						CHANNELS 6 Xposition Yposition Zposition Zrotation Xrotation Yrotation 
						End Site
						{
							OFFSET 0.0 0.0 0.0
						}
					}
				}
			}
		}
		JOINT UpperLeg_R
		{
			OFFSET -2.19251 6.46944 0.0
			CHANNELS 6 Xposition Yposition Zposition Zrotation Xrotation Yrotation 
			JOINT LowerLeg_R
			{
				OFFSET -39.0811 -0.00228153 -0.0401928
				CHANNELS 6 Xposition Yposition Zposition Zrotation Xrotation Yrotation 
				JOINT Foot_R
				{
					OFFSET -40.9854 0.0 0.0
					CHANNELS 6 Xposition Yposition Zposition Zrotation Xrotation Yrotation 
					JOINT Toes_R
					{
						OFFSET -11.7543 0.0 0.0
						CHANNELS 6 Xposition Yposition Zposition Zrotation Xrotation Yrotation 
						End Site
						{
							OFFSET 0.0 0.0 0.0
						}
					}
				}
			}
		}
	}
}
MOTION
Frames:	7
Frame Time:	0.0333333
0.000000 0.000000 0.000000 0.000000 0.000000 -0.000000 -2.420030 82.048700 -1.668540 86.708500 -1.184700 10.871500 15.735700 0.000005 -0.000001 82.377700 81.628800 -82.424100 8.984550 -0.406207 -0.000000 8.832480 -2.209940 0.077903 16.377300 -0.000001 -0.000001 -1.961560 -1.035880 0.615752 6.456720 -0.000001 -0.000000 -2.128180 1.342150 0.273989 12.994200 -0.242716 4.980390 -91.393000 4.559090 -72.989900 5.348090 -0.000007 -0.000001 -66.205700 26.721100 -9.282900 24.328600 0.000019 0.000005 13.430000 20.627100 -34.125600 22.291600 -0.000001 0.000005 13.748500 5.274790 0.746300 12.994500 -0.242716 -4.980390 87.911600 9.420130 -77.439200 -5.348130 -0.000001 -0.000004 -59.485800 17.344700 -8.894810 -24.328900 0.000322 -0.000009 -0.752877 -0.824440 -42.316900 -22.291500 -0.000108 -0.000004 8.336310 5.402790 -3.074030 -2.192480 -6.469440 -0.000000 -169.786000 -10.160000 -16.147500 39.081100 -0.000007 -0.000012 -0.417038 0.210830 63.182500 40.985400 -0.000006 -0.000013 2.036190 9.083790 -86.029400 11.754300 -0.000000 0.000003 -0.000250 -0.002231 -16.661100 -2.192510 6.469440 -0.000001 -178.520000 10.172700 165.131000 -39.081100 -0.002282 -0.040193 0.075147 -0.038342 61.950000 -40.985400 0.000008 0.000006 8.410180 2.928510 -86.202500 -11.754300 -0.000006 -0.000006 -0.958904 -1.193300 -16.645500
0.000000 0.000000 0.000000 0.000000 0.000000 -0.000000 -2.527460 84.481100 -0.748185 86.338600 0.911331 11.152200 15.735700 0.000005 -0.000001 79.189100 82.344400 -80.125600 8.984550 -0.406207 -0.000000 7.257620 -2.857280 -1.690020 16.377300 -0.000001 -0.000001 -0.591634 -0.602302 0.416650 6.456720 -0.000001 -0.000000 -1.367930 1.855650 1.553360 12.994200 -0.242716 4.980390 -91.473600 4.602810 -72.225600 5.348090 -0.000007 -0.000001 -66.715200 23.958200 -7.631180 24.328600 0.000019 0.000005 8.984900 16.461100 -29.153200 22.291600 -0.000001 0.000005 14.311500 5.209690 2.477200 12.994500 -0.242716 -4.980390 87.945500 8.468510 -76.308900 -5.348130 -0.000001 -0.000004 -52.923400 12.015400 -11.285000 -24.328900 0.000322 -0.000009 -0.883671 -0.663015 -53.133000 -22.291500 -0.000108 -0.000004 9.522070 5.479700 -5.701400 -2.192480 -6.469440 -0.000000 -169.415000 -9.351780 -12.152300 39.081100 -0.000007 -0.000012 -0.317048 0.212784 56.133600 40.985400 -0.000006 -0.000013 2.095580 10.418000 -83.001000 11.754300 -0.000000 0.000003 -0.000191 -0.001782 -16.644900 -2.192510 6.469440 -0.000001 -178.858000 12.614600 169.832000 -39.081100 -0.002282 -0.040193 0.068224 -0.046124 54.638700 -40.985400 0.000008 0.000006 8.233850 3.976610 -82.805100 -11.754300 -0.000006 -0.000006 -1.170630 -1.453010 -17.077800
0.000000 0.000000 0.000000 0.000000 0.000000 -0.000000 -2.341410 87.332000 -0.059040 86.427300 1.483220 9.940190 15.735700 0.000005 -0.000001 75.921700 83.746900 -77.818800 8.984550 -0.406207 -0.000000 4.322760 -2.980150 -3.678020 16.377300 -0.000001 -0.000001 1.527910 0.323523 0.035378 6.456720 -0.000001 -0.000000 -0.267732 2.436380 2.283130 12.994200 -0.242716 4.980390 -91.373900 3.931750 -70.718600 5.348090 -0.000007 -0.000001 -67.278900 21.312300 -4.441980 24.328600 0.000019 0.000005 7.599190 15.026300 -27.230000 22.291600 -0.000001 0.000005 12.135700 5.217070 2.286110 12.994500 -0.242716 -4.980390 88.339600 6.610080 -75.865800 -5.348130 -0.000001 -0.000004 -43.390400 1.631430 -18.154200 -24.328900 0.000322 -0.000009 -1.226000 -0.654928 -61.750400 -22.291500 -0.000108 -0.000004 14.724600 5.510770 -6.941060 -2.192480 -6.469440 -0.000000 -169.777000 -10.084800 -8.238520 39.081100 -0.000007 -0.000012 -0.192756 0.182154 46.620400 40.985400 -0.000006 -0.000013 1.838580 11.399300 -78.639800 11.754300 -0.000000 0.000003 -0.000105 -0.001072 -16.618700 -2.192510 6.469440 -0.000001 -179.304000 13.899200 173.570000 -39.081100 -0.002282 -0.040193 0.050909 -0.046925 45.436500 -40.985400 0.000008 0.000006 8.049340 5.707860 -77.633800 -11.754300 -0.000006 -0.000006 -1.304030 -1.589730 -18.022200
0.000000 0.000000 0.000000 0.000000 0.000000 -0.000000 -1.899650 89.659000 0.266186 86.677400 1.689330 7.937600 15.735700 0.000005 -0.000001 71.626900 85.228700 -74.247700 8.984550 -0.406207 -0.000000 1.232130 -2.857190 -5.207090 16.377300 -0.000001 -0.000001 3.022630 1.069160 -0.812172 6.456720 -0.000001 -0.000000 0.763996 2.722110 2.320950 12.994200 -0.242716 4.980390 -91.169100 3.090030 -69.263000 5.348090 -0.000007 -0.000001 -67.315900 18.945700 -1.236030 24.328600 0.000019 0.000005 9.652480 18.580500 -28.090600 22.291600 -0.000001 0.000005 9.050100 5.229770 1.956520 12.994500 -0.242716 -4.980390 89.092900 3.838140 -76.705900 -5.348130 -0.000001 -0.000004 -35.448300 -15.303900 -27.419900 -24.328900 0.000322 -0.000009 -9.417670 -4.687670 -63.778600 -22.291500 -0.000108 -0.000004 21.729000 5.532370 -7.822000 -2.192480 -6.469440 -0.000000 -170.767000 -10.692600 -5.451730 39.081100 -0.000007 -0.000012 -0.114548 0.150249 37.321900 40.985400 -0.000006 -0.000013 1.412220 11.692700 -74.125900 11.754300 -0.000000 0.000003 -0.000061 -0.000670 -16.603500 -2.192510 6.469440 -0.000001 179.920000 16.164300 175.663000 -39.081100 -0.002282 -0.040193 0.036453 -0.043482 37.336100 -40.985400 0.000008 0.000006 7.847830 8.798360 -72.279200 -11.754300 -0.000006 -0.000006 -0.963249 -1.150850 -19.090600
0.000000 0.000000 0.000000 0.000000 0.000000 -0.000000 -1.438050 91.120900 0.235441 86.625800 1.993040 5.834050 15.735700 0.000005 -0.000001 71.778900 86.355100 -74.769500 8.984550 -0.406207 -0.000000 -0.888190 -2.053280 -5.994780 16.377300 -0.000001 -0.000001 3.094660 1.145190 -1.783830 6.456720 -0.000001 -0.000000 0.544364 2.215480 1.844180 12.994200 -0.242716 4.980390 -91.212600 3.028350 -68.166400 5.348090 -0.000007 -0.000001 -65.460300 18.534500 0.050585 24.328600 0.000019 0.000005 11.132800 20.359700 -29.493000 22.291600 -0.000001 0.000005 6.791060 5.245130 1.558410 12.994500 -0.242716 -4.980390 90.095700 -0.479773 -78.604600 -5.348130 -0.000001 -0.000004 -32.104400 -36.511000 -36.637300 -24.328900 0.000322 -0.000009 -15.710700 -9.475110 -59.661900 -22.291500 -0.000108 -0.000004 23.523200 5.593870 -11.029600 -2.192480 -6.469440 -0.000000 -171.556000 -11.023300 -4.254340 39.081100 -0.000007 -0.000012 -0.090390 0.153887 30.429300 40.985400 -0.000006 -0.000013 1.158350 11.827500 -70.595400 11.754300 -0.000000 0.000003 -0.000059 -0.000653 -16.602900 -2.192510 6.469440 -0.000001 179.467000 18.968500 176.435000 -39.081100 -0.002282 -0.040193 0.027767 -0.039920 31.505100 -40.985400 0.000008 0.000006 6.864930 12.325100 -68.610500 -11.754300 -0.000006 -0.000006 -0.005576 -0.066931 -19.296800
0.000000 0.000000 0.000000 0.000000 0.000000 -0.000000 -1.296980 91.876600 0.032856 86.763100 3.039450 4.142240 15.735700 0.000005 -0.000001 82.257200 86.999400 -85.815000 8.984550 -0.406207 -0.000000 -1.825510 -0.510815 -7.122360 16.377300 -0.000001 -0.000001 2.535360 -0.258114 -1.600830 6.456720 -0.000001 -0.000000 -0.513790 1.142220 1.018020 12.994200 -0.242716 4.980390 -91.173800 3.014290 -68.711600 5.348090 -0.000007 -0.000001 -62.179300 18.720600 -0.347556 24.328600 0.000019 0.000005 11.202500 19.676900 -30.463300 22.291600 -0.000001 0.000005 6.640220 5.246830 1.516620 12.994500 -0.242716 -4.980390 91.277100 -6.304680 -78.528400 -5.348130 -0.000001 -0.000004 -34.778900 -55.291700 -48.254200 -24.328900 0.000322 -0.000009 -13.541900 -12.215400 -48.714500 -22.291500 -0.000108 -0.000004 21.823100 5.640630 -14.188700 -2.192480 -6.469440 -0.000000 -172.100000 -11.691700 -4.221080 39.081100 -0.000007 -0.000012 -0.073672 0.149618 26.215900 40.985400 -0.000006 -0.000013 1.164630 13.166900 -68.221900 11.754300 -0.000000 0.000003 -0.000060 -0.000665 -16.603300 -2.192510 6.469440 -0.000001 179.419000 21.012900 176.873000 -39.081100 -0.002282 -0.040193 0.020192 -0.032934 27.142800 -40.985400 0.000008 0.000006 6.055720 14.067700 -66.646800 -11.754300 -0.000006 -0.000006 -0.005695 -0.068042 -19.342100
0.000000 0.000000 0.000000 0.000000 0.000000 -0.000000 -1.528350 92.155900 -0.158809 87.405400 5.461680 3.238830 15.735700 0.000005 -0.000001 86.568900 87.174600 -90.851200 8.984550 -0.406207 -0.000000 -2.109770 0.030473 -8.562780 16.377300 -0.000001 -0.000001 2.183790 -2.035630 -0.124226 6.456720 -0.000001 -0.000000 -0.991275 0.074841 -0.163347 12.994200 -0.242716 4.980390 -91.175400 3.073870 -69.063100 5.348090 -0.000007 -0.000001 -58.836800 18.155600 -1.118500 24.328600 0.000019 0.000005 11.874500 20.033000 -31.541800 22.291600 -0.000001 0.000005 8.851750 5.241980 1.640240 12.994500 -0.242716 -4.980390 93.084200 -13.076500 -76.614000 -5.348130 -0.000001 -0.000004 -26.638800 -64.174200 -47.468800 -24.328900 0.000322 -0.000009 -11.436200 -15.499300 -37.102800 -22.291500 -0.000108 -0.000004 20.898300 5.643880 -14.401100 -2.192480 -6.469440 -0.000000 -172.679000 -12.401700 -4.672530 39.081100 -0.000007 -0.000012 -0.040140 0.089462 24.164600 40.985400 -0.000006 -0.000013 1.392630 16.063500 -66.820900 11.754300 -0.000000 0.000003 -0.000040 -0.000462 -16.595500 -2.192510 6.469440 -0.000001 179.166000 23.330600 177.831000 -39.081100 -0.002282 -0.040193 0.013149 -0.022286 23.811800 -40.985400 0.000008 0.000006 6.367640 13.909400 -66.315400 -11.754300 -0.000006 -0.000006 -0.005404 -0.065325 -19.231300
